# xmcd CD database file
#
# Track frame offsets:
#	150
#	21162
#	41857
#	63752
#	85385
#	106955
#	127485
#	153837
#
# Disc length: 2317 seconds
#
# Revision: 0
# Processed by: cddbd v1.4PL0 Copyright (c) Steve Scherf et al.
# Submitted via: CDex 1.50Beta5
#
DISCID=68090b08
DTITLE=Miles Pena - Mis Ideas
DYEAR=1998
DGENRE=Salsa
TTITLE0=Hazemelo Otra Vez
TTITLE1=Que Mala Suerte
TTITLE2=Abrazame
TTITLE3=Este Amor Tan Loco
TTITLE4=Ella No Esta Sola
TTITLE5=Volvere
TTITLE6=Llamo Para Decirme
TTITLE7=Despues De Un Beso Tuyo
EXTD=YEAR: 1998
EXTT0=
EXTT1=
EXTT2=
EXTT3=
EXTT4=
EXTT5=
EXTT6=
EXTT7=
PLAYORDER=
